<svg width="100%" height="100%" viewBox="0 0 108 108" fill="none" xmlns="http://www.w3.org/2000/svg">
<path d="M53.2676 91.2866C77.3145 91.2866 96.8118 71.7893 96.8118 47.739C96.8118 23.6888 77.3145 4.19141 53.2676 4.19141C29.2173 4.19141 9.71997 23.6922 9.71997 47.739C9.71997 71.7859 29.2173 91.2866 53.2676 91.2866Z" fill="#88370E"/>
<path d="M45.0056 31.1443C44.9043 31.1443 44.7963 31.1173 44.6917 31.1105C42.9131 31.0093 42.4406 28.9843 42.7342 27.8705C44.5567 20.891 43.6556 14.6912 40.6687 6.76666C40.0511 5.14666 42.5081 4.72478 43.578 5.15678C44.6073 5.56853 45.5625 7.05353 45.9742 8.17741C48.4481 14.8667 49.14 21.8968 47.0981 29.4129C46.8281 30.4254 46.0181 31.1679 45.0056 31.1443Z" fill="#F57D2D"/>
<path d="M50.4561 37.6143C50.1345 37.6075 49.8188 37.5262 49.5338 37.3769C49.2488 37.2275 49.0023 37.0142 48.8137 36.7536C48.625 36.4929 48.4993 36.1922 48.4464 35.8748C48.3935 35.5575 48.4148 35.2322 48.5088 34.9244C50.851 27.1619 52.5655 14.4719 47.1318 4.93419C46.558 3.93181 48.016 3.27369 49.1669 3.38169C51.7994 3.61794 53.335 7.55994 53.8413 9.31494C56.2173 17.5061 55.441 28.4579 52.498 36.1293C52.1605 37.0338 51.3674 37.6379 50.4561 37.6143Z" fill="#F57D2D"/>
<path d="M56.0755 43.7335C54.6411 43.3184 54.3711 41.4284 54.7019 40.3248C61.2325 18.4379 54.658 4.98855 54.6074 4.84342C54.2024 3.76342 57.7461 2.28855 59.4944 6.66592C59.7475 7.30042 65.5761 21.9378 59.005 42.1034C58.6911 43.0315 57.5774 44.1723 56.0755 43.7302M18.9168 76.3563C18.3093 75.6408 17.5499 74.5001 18.5118 73.8588C20.1048 72.7856 25.5824 71.0474 29.9598 65.1074C30.6449 64.1793 31.7991 63.7507 32.8049 64.3244C33.8073 64.8914 34.2561 66.2313 33.5879 67.1696C28.2723 74.6621 21.8024 76.6871 21.5391 76.8356C21.2185 77.0246 19.5243 77.0718 18.9168 76.3563ZM22.4335 79.468C21.9948 78.3712 24.796 77.8919 24.796 77.8919C26.038 77.4194 31.1241 76.4677 35.1843 70.0788C35.7985 69.1068 37.0304 68.7288 38.026 69.3026C39.0318 69.8763 39.376 71.1487 38.8023 72.1477C36.0786 76.9233 30.7529 80.4974 27.1079 81.3682C25.1605 81.8305 22.8655 80.5413 22.4335 79.4714M29.251 85.7253C27.9618 85.0435 27.5804 83.7948 28.4005 83.5248C33.2335 81.9622 38.5188 77.9291 41.0838 74.1322C41.403 73.6977 41.878 73.4036 42.4093 73.3118C42.9405 73.2199 43.4868 73.3373 43.9333 73.6394C44.3799 73.9415 44.6922 74.4047 44.8046 74.932C44.917 75.4593 44.8209 76.0097 44.5364 76.4677C41.5225 81.0104 38.4513 83.3054 33.436 85.4789C32.4843 85.894 30.4593 86.3665 29.251 85.7253ZM35.4273 87.5917C38.593 86.1404 43.8648 83.1367 46.9225 78.0134C47.22 77.5684 47.6771 77.2546 48.1993 77.1367C48.7215 77.0188 49.269 77.1059 49.7289 77.38C50.1887 77.6541 50.5258 78.0943 50.6705 78.6097C50.8153 79.1251 50.7567 79.6764 50.5068 80.1498C48.043 84.2808 44.6174 87.5478 39.3929 89.3872C36.8549 90.2917 34.381 88.081 35.4306 87.5917M15.9974 70.3353C8.96726 62.0497 7.72863 51.2328 9.53426 40.5172C9.94601 38.0534 10.8505 36.5178 11.7449 36.5245C12.8991 36.5448 14.0129 40.507 13.6754 42.6603C12.1566 52.3364 14.9579 61.8303 21.016 69.2148C21.3805 69.6603 20.8641 71.1723 19.5749 71.7359C18.2823 72.2928 16.8411 71.3309 15.9974 70.3353Z" fill="#F57D2D"/>
<path d="M21.3536 65.6704C18.1744 62.6835 15.5419 53.3347 15.5317 48.8865C15.5317 47.7322 15.5419 46.0684 16.6961 46.0684C16.6961 46.0684 19.278 46.4632 19.71 48.8764C20.3242 52.3526 22.248 60.3379 25.4542 64.3777C26.1731 65.2822 23.5237 67.7021 21.3536 65.6704Z" fill="#F57D2D"/>
<path d="M56.052 92.8969C52.38 93.0825 46.7437 92.3164 44.8942 89.7851C44.2125 88.8536 45.4342 87.9761 46.548 88.2731C53.2642 90.0855 57.915 91.1419 66.4942 86.9737C68.2324 86.13 70.1561 87.0142 69.2955 88.2292C68.0906 89.9437 62.6467 92.6032 56.052 92.8969Z" fill="#D8631B"/>
<path d="M49.167 85.33C48.5156 84.3749 50.4495 82.7785 51.597 82.9675C53.4093 83.2544 54.6682 83.575 55.9338 83.6257C57.2298 83.6763 58.8262 83.2038 59.3156 83.2038C60.4732 83.2038 63.2407 84.3412 62.532 85.2524C60.3382 88.0705 51.2156 88.3237 49.167 85.3267" fill="#D8631B"/>
<path d="M72.9673 37.608C72.4222 37.6989 71.8633 37.5695 71.4136 37.2482C70.9639 36.927 70.6602 36.4403 70.5694 35.8952C70.4785 35.3501 70.6079 34.7912 70.9292 34.3415C71.2504 33.8918 71.7371 33.5881 72.2822 33.4973C77.2536 32.4173 83.7336 28.7115 87.5136 22.7648C88.4181 21.3371 91.2261 24.0135 89.7141 26.2748C85.1781 33.099 79.2279 36.2648 73.1698 37.5743L72.9673 37.608Z" fill="#F57D2D"/>
<path d="M71.5264 45.1574C70.9843 45.221 70.4388 45.0703 70.0062 44.7374C69.5737 44.4045 69.2884 43.9158 69.2111 43.3754C69.134 42.8274 69.2771 42.2711 69.6092 41.8283C69.9413 41.3855 70.4352 41.0923 70.983 41.0129C79.1606 39.8418 88.0942 33.6048 91.098 27.3611C91.5975 26.3249 95.0467 29.3861 92.583 32.8049C88.1887 38.8901 79.5656 43.9998 71.5837 45.1406C71.5612 45.1541 71.541 45.1597 71.523 45.1574" fill="#F57D2D"/>
<path d="M72.2754 51.789C71.6072 51.8677 70.9547 51.9206 70.3179 51.9476C69.7645 51.9705 69.2246 51.773 68.8165 51.3985C68.4085 51.024 68.1656 50.5029 68.141 49.9496C68.1274 49.6754 68.1686 49.4012 68.262 49.143C68.3555 48.8849 68.4994 48.6479 68.6853 48.4459C68.8713 48.2439 69.0956 48.081 69.3452 47.9665C69.5948 47.8521 69.8646 47.7885 70.139 47.7795C78.5023 47.4285 90.659 41.8057 94.4323 34.8127C94.979 33.8002 98.4722 36.669 95.5022 40.4321C93.2747 43.2603 89.7647 45.5688 85.7484 47.5871C81.3947 49.7808 76.5009 51.2928 72.2754 51.789ZM78.8803 57.4927C78.3412 57.5645 77.7972 57.5927 77.2535 57.5771C76.7008 57.5637 76.176 57.3312 75.7947 56.9309C75.4134 56.5306 75.2067 55.9951 75.2201 55.4424C75.2335 54.8897 75.466 54.3649 75.8663 53.9836C76.2666 53.6022 76.8021 53.3955 77.3548 53.409C81.209 53.4933 91.6209 49.4433 96.0422 42.501C96.6665 41.529 98.9717 45.1571 96.4809 47.9921C91.1012 54.1278 83.9698 56.8953 78.8803 57.4927ZM62.7917 49.2003C62.5316 49.2012 62.2737 49.1519 62.0323 49.0552C61.5235 48.8462 61.1155 48.4482 60.8939 47.9447C60.6724 47.4413 60.6546 46.8715 60.8443 46.3552C65.1373 33.7597 66.6392 18.9097 61.2392 5.23084C60.8173 4.15759 64.9348 4.01584 66.0249 7.21534C71.1549 22.3522 69.6092 34.6035 64.7323 47.8672C64.5839 48.2612 64.3183 48.6002 63.9713 48.8386C63.6243 49.0769 63.2126 49.2032 62.7917 49.2003Z" fill="#F57D2D"/>
<path d="M78.5362 25.1538C77.4663 23.8105 73.3657 20.5705 71.776 20.0137C70.6893 19.6255 70.3113 15.8793 71.4655 15.8793C75.2624 15.8725 80.47 19.6255 82.0192 23.2199C83.1667 25.8794 80.7299 27.8943 78.5362 25.1538ZM83.8349 21.7788C80.0988 16.7838 77.095 13.4999 70.1763 11.0699C68.5799 10.5063 67.0713 8.5488 68.0399 7.92442C69.8354 6.76005 73.1868 8.17755 74.1217 8.62305C77.7835 10.3713 81.1754 12.2444 84.0307 15.5587C85.6405 17.4318 87.5305 21.34 86.7644 22.1905C85.6 23.4832 84.25 22.3255 83.8349 21.7788ZM84.8812 63.2407C84.2737 62.2619 87.6588 60.8512 87.9625 57.2737C88.0638 56.1262 91.5569 54.7762 91.6312 55.9237C91.918 60.3955 90.3385 62.0257 88.5869 63.298C86.6699 64.675 85.2693 63.8785 84.8812 63.2407ZM91.8337 66.2917C90.271 65.9407 90.8988 64.2599 91.6244 63.3655C94.3919 59.9737 94.645 58.1613 94.3582 54.4657C94.213 52.6432 95.7082 51.013 96.4169 51.9142C97.3349 53.0954 98.0268 56.548 97.3687 59.383C95.8162 66.1263 92.323 66.403 91.8337 66.2917ZM76.015 27.118C76.286 27.4334 76.4893 27.801 76.6124 28.198C76.7238 28.603 76.6732 29.0688 76.4032 29.3793C76.2054 29.5776 75.9687 29.7328 75.7079 29.8349C75.2407 30.0861 74.741 30.2712 74.2229 30.385C73.7009 30.4989 73.155 30.4019 72.7042 30.115C72.1642 29.7269 71.9448 29.035 71.803 28.3938C71.5614 27.3471 71.4034 26.2829 71.3305 25.2112C71.2925 24.9545 71.3239 24.6922 71.4217 24.4518C72.1405 23.1018 75.5257 26.5038 76.0117 27.118" fill="#D8631B"/>
<path d="M78.5362 82.7882C73.575 81.9175 68.5968 79.9802 63.7301 77.7662C62.6062 77.2262 61.5262 76.6626 60.4462 76.0889C58.6575 77.1014 56.7337 77.9181 54.7256 78.5256C58.8331 80.8575 63.1893 82.7209 67.7126 84.0809C73.2543 85.7346 75.5257 85.4309 75.9948 85.3634C77.8173 85.0832 79.6668 83.0177 78.5362 82.7882Z" fill="#F57D2D"/>
<path d="M16.2439 30.6216C15.6938 29.6091 14.877 27.0948 14.877 27.0948C13.4258 26.9159 12.2344 28.789 12.7676 31.9716C13.0781 33.8009 21.3401 54.6179 45.7583 72.7146C48.618 74.8425 51.6098 76.787 54.7155 78.5365C54.7155 78.5365 56.6595 79.819 59.3055 78.4521C61.5533 77.2945 60.4361 76.0896 60.4361 76.0896C40.7363 65.7115 27.2464 50.8278 16.2439 30.6216Z" fill="#FF9966"/>
<path d="M84.0812 78.2091C78.1533 76.3332 72.3739 74.0171 66.7911 71.2803C65.6661 72.4615 64.4398 73.5336 63.1123 74.4966C64.2846 75.1514 65.4489 75.7859 66.6054 76.4001C70.2437 78.3408 84.7866 84.6723 84.0812 78.2091Z" fill="#F57D2D"/>
<path d="M66.7845 71.2798C47.0407 61.4991 30.0442 46.1765 19.3117 20.3105C16.4868 20.9349 16.7805 24.2492 17.1855 25.3292C26.7806 50.8543 46.2105 65.0192 63.1057 74.4962C63.1057 74.4962 65.772 75.9609 67.5337 73.7098C68.5901 72.353 66.7845 71.2798 66.7845 71.2798Z" fill="#FF9966"/>
<path d="M88.3235 72.7646C82.2496 71.016 76.3842 68.6112 70.8309 65.5928C70.1434 66.9283 69.3369 68.1991 68.4211 69.3896C72.7411 71.5834 77.3041 73.4397 82.0966 74.8335C88.1548 76.5784 89.4643 72.9604 88.3235 72.7646Z" fill="#F57D2D"/>
<path d="M24.5025 15.0454C23.8106 13.584 20.8912 15.8048 21.3975 18.1065C24.5464 29.5647 39.0825 55.3497 68.4214 69.3897C68.4214 69.3897 70.767 70.419 71.6614 68.4615C72.5524 66.4973 70.8412 65.5928 70.8412 65.5928C40.0207 49.2004 28.3162 25.7172 24.5025 15.0454Z" fill="#FF9966"/>
<path d="M92.5018 67.4934C85.4481 64.8946 79.1436 62.0833 73.423 58.9209C73.3822 59.2441 73.3259 59.565 73.2542 59.8828C72.961 61.1338 72.5718 62.3603 72.0898 63.5514C77.2733 66.1924 82.6726 68.3862 88.2291 70.109C92.8528 71.3983 93.5785 67.9051 92.4985 67.49" fill="#F57D2D"/>
<path d="M73.4231 58.9207C52.5656 47.4524 42.0289 34.3507 30.4087 11.7281C28.9912 9.44993 25.5386 11.5357 26.8819 13.9556C37.125 36.1732 48.06 49.9601 72.09 63.5613C72.09 63.5613 73.9294 64.2768 74.6381 62.1337C75.087 60.7837 74.6651 59.5957 73.4231 58.9207Z" fill="#FF9966"/>
<path d="M59.5012 104.624C57.1657 104.624 54.793 104.567 52.4238 104.429C37.7999 103.619 19.5412 98.59 14.023 89.437C12.2917 86.575 7.03678 77.8607 17.7625 60.2263C23.7768 50.3376 38.2319 29.2101 34.273 9.02759C34.273 9.02759 33.7263 7.08697 35.4543 6.35459C38.0092 5.27459 38.4243 7.46834 38.4243 7.46834C43.48 31.0157 28.3769 52.447 22.0555 62.8352C13.8644 76.3082 16.0042 82.984 18.3262 86.8315C21.0093 91.2662 32.3763 98.2795 52.7005 99.4C78.2493 100.811 93.8823 94.4218 95.4888 92.137C95.5462 91.2763 94.9893 90.2638 85.4043 90.0613C82.7448 90.004 82.9912 86.1193 84.3243 85.9708C88.2224 85.5118 95.5563 85.5119 98.9144 87.9452C100.609 89.1737 101.317 90.9895 100.653 93.0988C98.6512 99.4168 80.8548 104.624 59.5012 104.624Z" fill="#FF8D5C"/>
</svg>
